<?xml version="1.0" encoding="UTF-8" standalone="no"?>
<!-- Created with Inkscape (http://www.inkscape.org/) -->

<svg
   width="512"
   height="512"
   viewBox="0 0 512 512"
   version="1.1"
   id="svg1"
   inkscape:version="1.4.3 (0d15f75, 2025-12-25)"
   sodipodi:docname="Logo sin fondo.svg"
   xmlns:inkscape="http://www.inkscape.org/namespaces/inkscape"
   xmlns:sodipodi="http://sodipodi.sourceforge.net/DTD/sodipodi-0.dtd"
   xmlns="http://www.w3.org/2000/svg"
   xmlns:svg="http://www.w3.org/2000/svg">
  <sodipodi:namedview
     id="namedview1"
     pagecolor="#505050"
     bordercolor="#eeeeee"
     borderopacity="1"
     inkscape:showpageshadow="0"
     inkscape:pageopacity="0"
     inkscape:pagecheckerboard="0"
     inkscape:deskcolor="#505050"
     inkscape:document-units="px"
     inkscape:zoom="2.2792969"
     inkscape:cx="259.50985"
     inkscape:cy="255.12254"
     inkscape:window-width="2560"
     inkscape:window-height="1369"
     inkscape:window-x="1912"
     inkscape:window-y="-8"
     inkscape:window-maximized="1"
     inkscape:current-layer="layer2" />
  <defs
     id="defs1">
    <rect
       x="114.07027"
       y="136.00686"
       width="135.56812"
       height="139.07798"
       id="rect3" />
    <rect
       x="144.78149"
       y="119.77378"
       width="206.64267"
       height="258.85176"
       id="rect2" />
    <rect
       x="79.410454"
       y="81.165381"
       width="200.93916"
       height="229.01799"
       id="rect1" />
    <rect
       x="144.78149"
       y="119.77378"
       width="206.64267"
       height="258.85175"
       id="rect2-4" />
    <rect
       x="114.07027"
       y="136.00687"
       width="135.56812"
       height="139.07797"
       id="rect3-1" />
    <rect
       x="114.07027"
       y="136.00687"
       width="135.56812"
       height="139.07797"
       id="rect3-6" />
    <rect
       x="79.410454"
       y="81.165381"
       width="200.93916"
       height="229.01799"
       id="rect5" />
    <rect
       x="79.410454"
       y="81.165381"
       width="200.93916"
       height="229.01799"
       id="rect6" />
    <rect
       x="79.410454"
       y="81.165381"
       width="200.93916"
       height="229.01799"
       id="rect20" />
    <rect
       x="79.410454"
       y="81.165381"
       width="200.93916"
       height="229.01799"
       id="rect21" />
    <rect
       x="79.410454"
       y="81.165381"
       width="200.93916"
       height="229.01799"
       id="rect22" />
    <symbol
       id="sjjb-shopping.svg:symbol157"
       viewBox="0 0 576.44501 577.45154">
      <title
         id="title154">Music</title>
      <path
         d="M 64.571,0.06355556 C 23.236,0.06355556 0,21.434556 0,65.099556 V 515.22256 c 0,40.844 20.895,62.229 62.192,62.229 h 452.024 c 41.307,0 62.229,-20.315 62.229,-62.229 V 65.099556 c 0,-42.601 -20.922,-65.03600044 -63.521,-65.03600044 -0.004,0 -448.495,-0.143 -448.353,0 z"
         id="path155" />
      <path
         opacity="0.3"
         fill="#ffffff"
         d="m 37.354594,150.15298 v 10 H 545.12608 v -10 z m 0,60 v 10 H 545.12608 v -10 z m 0,60 v 10 H 545.12608 v -10 z m 0,60 v 10 H 545.12608 v -10 z m 0,60 v 10 H 545.12608 v -10 z m 0,60 v 10 H 545.12608 v -10 z m 0,60 v 10 H 545.12608 v -10 z"
         id="path156" />
      <path
         fill="#ffffff"
         d="m 430.72569,39.268212 c -2.49386,0.03902 -4.91669,0.438478 -7.21485,1.173828 a 24.774244,24.774244 0 0 0 -4.27734,1.316407 L 207.33116,125.75259 a 24.774244,24.774244 0 0 0 -11.67578,9.27735 c -4.11773,4.63215 -6.30673,10.49563 -6.22852,16.74023 l -0.002,-0.15625 v 215.16602 c -10.45687,-5.31124 -22.23405,-8.39844 -34.71875,-8.39844 -42.3767,0 -77.025394,34.60069 -77.025394,76.98633 0,42.38563 34.639744,77.02343 77.025394,77.02343 37.48833,0 76.65603,-24.83003 83.43359,-69.91992 0.0134,-0.0607 0.0622,-0.2047 0.0742,-0.25976 0.14126,-0.64545 0.17606,-0.93995 0.21484,-1.22657 0.0776,-0.57323 0.114,-0.98326 0.1543,-1.45703 0.0806,-0.94753 0.14937,-2.03727 0.21094,-3.28906 0.12313,-2.50359 0.21334,-5.55996 0.17383,-8.4707 V 166.5065 l 167.37304,-66.34375 v 179.19336 c -10.45656,-5.31085 -22.23453,-8.39649 -34.71875,-8.39649 -42.37668,0 -77.02344,34.60068 -77.02344,76.98633 0,42.38564 34.6378,77.02344 77.02344,77.02344 37.48342,0 76.64647,-24.82369 83.43164,-69.90235 0.0144,-0.0652 0.0653,-0.21861 0.0781,-0.27734 0.14125,-0.64544 0.1741,-0.93995 0.21289,-1.22656 0.0776,-0.57324 0.114,-0.98327 0.15429,-1.45703 0.0806,-0.94754 0.14937,-2.03727 0.21094,-3.28907 0.12314,-2.50358 0.21335,-5.55997 0.17383,-8.4707 l 0.002,0.16797 V 64.19204 l -0.002,0.15625 c 0.0849,-6.766277 -2.48937,-13.078338 -7.28125,-17.855468 -4.79196,-4.777236 -11.10939,-7.330177 -17.875,-7.22461 a 12.387122,12.387122 0 0 0 -0.002,0 z"
         id="path157" />
    </symbol>
  </defs>
  <g
     inkscape:groupmode="layer"
     id="layer4"
     inkscape:label="fondo"
     style="display:none">
    <rect
       style="display:none;fill:#1e1f22;fill-opacity:1;fill-rule:evenodd;stroke-width:3.1"
       id="rect28"
       width="512"
       height="511.12253"
       x="0"
       y="0" />
  </g>
  <g
     inkscape:groupmode="layer"
     id="layer2"
     inkscape:label="division"
     style="display:none">
    <path
       id="rect4"
       style="display:none;fill:#8a4c0e;fill-opacity:1;fill-rule:evenodd;stroke-width:4.32623"
       d="M -0.43871885,-0.43872218 H 511.56128 V 511.56127 c 0,0 -146.76765,-239.98536 -283.75976,-241.47045 C 226.37754,129.96649 -0.43871885,-0.43872218 -0.43871885,-0.43872218 Z"
       sodipodi:nodetypes="ccccc" />
  </g>
  <g
     inkscape:label="Capa 1"
     inkscape:groupmode="layer"
     id="layer1"
     style="display:inline">
    <path
       d="m 383.90566,85.214641 c 8.11538,12.242539 5.72509,67.865039 5.66466,82.143199 H 355.7406 c -0.27989,-24.88278 0.41409,-4.57033 -0.99357,-60.20586 -23.52711,-19.078585 -44.26313,-16.56355 -60.78839,-14.6685 -44.78066,5.13527 -58.642,59.61875 -13.33637,76.6012 21.80888,7.14601 45.48386,9.10933 66.33541,18.8194 25.89963,11.99088 43.56535,38.01293 42.64632,65.1394 0.90098,23.83982 -11.78781,47.85932 -34.05697,60.12814 -25.30285,14.17607 -57.32853,15.05534 -85.18692,7.52929 -26.67539,-7.29619 -48.55311,-29.07415 -51.62636,-55.24846 -0.80959,-5.80439 -3.23508,-14.18994 5.87295,-11.70082 h 39.63248 c -1.09026,17.46419 15.53849,32.08343 33.68464,32.95888 17.57888,2.53956 38.87943,-4.88116 43.89102,-22.15976 4.42505,-13.50009 -0.61924,-30.07232 -14.79823,-36.64622 -13.01054,-6.30392 -27.88503,-7.75708 -41.85258,-11.51937 -22.33564,-4.06207 -44.35453,-13.82259 -57.73319,-31.59659 -19.1658,-23.92067 -22.26231,-58.27607 -8.0306,-84.96319 22.53274,-42.480116 124.25891,-66.480516 164.50542,-14.610739 z"
       id="text2-2"
       style="font-weight:bold;font-size:12px;font-family:'JetBrains Mono NL';-inkscape-font-specification:'JetBrains Mono NL, Bold';white-space:pre;display:inline;opacity:1;mix-blend-mode:normal;fill:#b46e1b;fill-opacity:1;fill-rule:nonzero;stroke-width:94.745"
       aria-label="S&#10;"
       sodipodi:nodetypes="ccccsccccccccccccccc" />
    <text
       xml:space="preserve"
       id="text1"
       style="font-style:normal;font-variant:normal;font-weight:bold;font-stretch:normal;font-size:12px;font-family:'JetBrains Mono NL';-inkscape-font-specification:'JetBrains Mono NL, Bold';font-variant-ligatures:normal;font-variant-caps:normal;font-variant-numeric:normal;font-variant-east-asian:normal;writing-mode:lr-tb;direction:ltr;white-space:pre;shape-inside:url(#rect1);display:inline;fill:#b46e1b;fill-opacity:1;fill-rule:evenodd;stroke-width:3.1" />
    <g
       inkscape:label="Capa 1 negro"
       inkscape:groupmode="layer"
       id="g19"
       style="display:inline">
      <text
         xml:space="preserve"
         id="text18"
         style="font-style:normal;font-variant:normal;font-weight:bold;font-stretch:normal;font-size:12px;font-family:'JetBrains Mono NL';-inkscape-font-specification:'JetBrains Mono NL, Bold';font-variant-ligatures:normal;font-variant-caps:normal;font-variant-numeric:normal;font-variant-east-asian:normal;writing-mode:lr-tb;direction:ltr;white-space:pre;shape-inside:url(#rect22);display:inline;fill:#b46e1b;fill-opacity:1;fill-rule:evenodd;stroke-width:3.1" />
      <path
         id="path19"
         style="font-weight:bold;font-size:12px;font-family:'JetBrains Mono NL';-inkscape-font-specification:'JetBrains Mono NL, Bold';white-space:pre;display:inline;opacity:1;mix-blend-mode:normal;fill:#0d0d0f;fill-opacity:1;fill-rule:nonzero;stroke-width:94.745"
         d="m 326.79662,50.178021 c -41.6087,-1.898404 -83.28251,11.294976 -100.70907,43.982259 -14.23175,26.68713 -11.13452,61.04222 8.03153,84.96288 13.37829,17.77401 35.39781,27.53542 57.73344,31.59749 13.96761,3.76228 28.84023,5.21486 41.85091,11.51877 14.17895,6.5739 19.22317,23.14555 14.79817,36.64563 -5.01135,17.27862 -26.31127,24.7008 -43.89017,22.16123 -17.37249,-0.83825 -33.35308,-14.27402 -33.72786,-30.74211 h 0.21464 c 0,-14.39883 -3.54749,-26.90812 -10.6388,-37.53022 -7.09112,-10.85813 -17.2217,-19.23808 -30.39142,-25.13925 -12.91643,-5.90116 -28.11215,-8.85203 -45.58706,-8.85203 -25.83291,0 -46.47384,6.61019 -61.92266,19.82879 -15.44896,12.98256 -23.172191,30.44852 -23.172191,52.40086 0,17.93953 5.825361,33.40176 17.475411,46.38432 11.65001,12.98256 27.47845,21.8346 47.48596,26.55554 l 37.23016,8.84996 c 9.62397,2.36047 16.96683,6.84712 22.03236,13.45643 5.31822,6.37326 7.97853,13.80843 7.97853,22.3061 0,11.33023 -4.05259,20.41655 -12.15683,27.2619 -7.851,6.6093 -18.61444,9.91543 -32.29077,9.91543 -14.18243,0 -25.58034,-3.42297 -34.19135,-10.26832 -8.35736,-6.84535 -12.53535,-16.05087 -12.53535,-27.61715 H 93.687359 c 0,15.81512 3.799892,29.50522 11.397761,41.0715 7.85111,11.33024 18.73954,20.06307 32.66879,26.20029 14.18292,6.13721 30.64587,9.20729 49.38699,9.20729 18.48843,0 34.57146,-3.07008 48.24768,-9.20729 13.67606,-6.37326 24.18455,-15.22323 31.52918,-26.55347 7.59783,-11.33023 11.39758,-24.66716 11.39758,-40.01018 0,-19.59186 -5.95261,-36.47066 -17.85593,-50.63346 -11.64981,-14.16279 -27.73081,-23.60435 -48.24516,-28.32529 l -38.36997,-8.85174 c -8.86401,-2.36046 -15.8292,-6.13662 -20.89473,-11.32964 -4.81187,-5.19303 -7.21694,-11.80321 -7.21694,-19.8288 0,-9.67791 3.41982,-17.46626 10.25782,-23.36743 7.09126,-6.1372 16.58729,-9.20699 28.4905,-9.20699 12.15666,0 21.907,3.06979 29.25164,9.20699 7.34463,6.13721 11.01731,14.16191 11.01731,24.07586 -0.66084,2.52216 0.23793,6.37268 0.67165,9.48229 3.07295,26.17431 24.95144,47.95256 51.62667,55.24875 27.85834,7.52606 59.88299,6.64825 85.18588,-7.52781 22.26943,-12.26881 34.95864,-36.28891 34.05768,-60.12873 0.91921,-27.12646 -16.74652,-53.14794 -42.64644,-65.1388 -20.85125,-9.71007 -44.52603,-11.67369 -66.33492,-18.81971 -45.30556,-16.98236 -31.44584,-71.46544 13.33523,-76.600931 16.52531,-1.894863 37.26213,-4.411415 60.78922,14.667051 1.40765,55.63557 0.71326,35.32377 0.99313,60.20632 h 33.82965 c 1.97116,-60.54216 0.35895,-69.70207 -9.00857,-83.086883 C 372.09295,56.949598 351.76214,51.317241 326.79662,50.178021 Z"
         sodipodi:nodetypes="cccccccccccscsscccscscccccsccsccccscsscccccccccccsc" />
      <ellipse
         style="display:inline;opacity:1;mix-blend-mode:normal;fill:#af6b1a;fill-opacity:1;fill-rule:nonzero;stroke-width:3.21104"
         id="path38-6"
         cx="362.14108"
         cy="169.06075"
         rx="33.797684"
         ry="28.254818" />
    </g>
    <g
       inkscape:label="Capa 2"
       inkscape:groupmode="layer"
       id="g20"
       style="display:inline">
      <path
         d="M 180.45388,450 Q 152.34172,450 131.0678,440.79419 110.17346,431.58838 98.396774,414.59302 87,397.2436 87,373.52093 h 46.7267 q 0,17.34941 12.53676,27.61744 12.91604,10.26803 34.19042,10.26803 20.51386,0 32.29059,-9.91396 12.15658,-10.26802 12.15658,-27.26338 0,-12.74651 -7.97764,-22.30639 -7.59783,-9.91396 -22.03392,-13.45466 l -37.22955,-8.85174 q -30.0115,-7.0814 -47.48648,-26.55523 -17.475073,-19.47385 -17.475073,-46.38315 0,-32.9285 23.173483,-52.40233 23.17354,-19.82791 61.92266,-19.82791 26.21236,0 45.58691,8.85175 19.75481,8.85174 30.39174,25.13895 10.63695,15.93314 10.63695,37.5314 H 218.0632 q 0,-14.87093 -11.01709,-24.07675 -11.01682,-9.20582 -29.25158,-9.20582 -17.85499,0 -28.49194,9.20582 -10.25718,8.85174 -10.25718,23.36861 0,12.03838 7.21805,19.82791 7.59782,7.78954 20.89412,11.33023 l 38.36893,8.85175 q 30.77144,7.08139 48.24667,28.32558 17.85499,21.24419 17.85499,50.63198 0,23.01454 -11.39697,40.00989 -11.01671,16.99535 -31.53106,26.55524 Q 208.18578,450 180.45388,450 Z"
         id="text2"
         style="font-weight:bold;font-size:12px;font-family:'JetBrains Mono NL';-inkscape-font-specification:'JetBrains Mono NL, Bold';white-space:pre;display:inline;opacity:1;mix-blend-mode:normal;fill:#b46e1b;fill-opacity:1;fill-rule:nonzero;stroke-width:94.745"
         aria-label="S&#10;" />
    </g>
  </g>
  <g
     id="use1-9"
     style="display:inline;opacity:1;mix-blend-mode:normal;fill:#0c0c0e;fill-opacity:1;fill-rule:nonzero;stroke:none"
     transform="matrix(0.39621498,0,0,0.39158022,184.75714,7.568757)">
    <title
       id="title38-2">Music</title>
    <path
       id="path42-7"
       style="fill:#0c0c0e;fill-opacity:1;fill-rule:nonzero"
       d="m 533.42933,167.62287 c -0.68536,0.1879 -1.37678,0.36381 -2.06013,0.54565 0.65934,0.4866 1.35049,0.95628 2.06013,1.41425 z m -6.39753,1.77616 c -0.50635,1.10909 -0.57864,1.78294 -0.49554,1.93207 v 0.006 0.006 h 0.006 v 0.006 l 0.006,0.006 h 0.006 l 0.006,0.006 h 0.006 l 0.006,0.006 c 0.002,3e-5 0.0146,2.9e-4 0.0167,0 l 0.006,-0.006 h 0.006 l 0.006,-0.006 c 0.13681,-0.0907 0.37323,-0.71155 0.42873,-1.95434 z m -43.14573,78.9808 v 77.25475 c -10.45656,-5.31085 -22.23727,-8.39641 -34.72149,-8.39641 -42.37668,0 -77.02089,34.60184 -77.02089,76.98749 0,42.38564 34.63525,77.0209 77.02089,77.0209 37.48342,0 76.6444,-24.82088 83.42957,-69.89954 0.0144,-0.0652 0.0652,-0.21967 0.0779,-0.2784 0.14125,-0.64544 0.17835,-0.93833 0.21714,-1.22494 0.0776,-0.57324 0.11005,-0.98503 0.15034,-1.45879 0.0806,-0.94754 0.15001,-2.03883 0.21158,-3.29063 0.12314,-2.50358 0.21769,-5.55806 0.17817,-8.46879 V 249.31524 c -16.51564,-0.26897 -33.02919,-0.58014 -49.54326,-0.93541 z m -169.92704,78.90285 c -0.22696,0.42868 -0.54738,1.03996 -0.70713,1.3363 -0.0223,0.11486 -0.0493,0.23047 -0.0724,0.34521 0.24752,-0.51153 0.51344,-1.06211 0.80178,-1.65924 -0.007,-0.007 -0.0153,-0.0154 -0.0223,-0.0223 z m -32.49432,173.98048 v 0.006 h -0.006 c -0.0278,0.0318 -0.0951,0.16108 -0.16704,0.3118 0.0239,0.0204 0.0485,0.0408 0.0724,0.0612 0.0328,-0.10348 0.0636,-0.20775 0.0947,-0.3118 0.006,-0.0204 0.009,-0.0397 0.0111,-0.0501 v -0.006 -0.0111 z" />
  </g>
</svg>
